<svg width="31" height="35" viewBox="0 0 31 35" fill="none" xmlns="http://www.w3.org/2000/svg">
<g filter="url(#filter0_d_1_384)">
<path d="M24.4043 16.6027H26.9258V14.4285H19.6369C19.5043 16.6844 17.6801 18.4744 15.4502 18.4744C13.2203 18.4744 11.3961 16.6844 11.2635 14.4285H4.44653L4.44653 16.6027H6.52795C6.63932 17.0495 6.78515 17.4882 6.96015 17.9186C7.15901 18.4036 7.39499 18.8667 7.66809 19.3054L5.84652 21.1772L8.71543 24.1252L10.5396 22.2507C10.9612 22.5259 11.4067 22.7657 11.8707 22.9672C12.393 23.1934 12.9313 23.3705 13.4801 23.4931V26.1005H17.5422V23.4713C18.0593 23.3486 18.5657 23.1798 19.0589 22.9672C19.5573 22.7519 20.032 22.4932 20.4801 22.1935L22.2725 24.0353L25.144 21.0846L23.3225 19.2128C23.5717 18.8014 23.7865 18.3682 23.9721 17.9186C24.1471 17.4882 24.2929 17.0495 24.4043 16.6027Z" fill="#FFB342"/>
<path d="M23.3207 4.96914V9.35937C23.3207 9.6573 23.0837 9.89902 22.7916 9.89902H22.4167C22.1246 9.89902 21.8875 9.6573 21.8875 9.35937V3.82803C20.8016 3.09163 19.5834 2.54075 18.277 2.22595V9.84281C18.277 10.1407 18.0399 10.3824 17.7478 10.3824H13.6135C13.3214 10.3824 13.0844 10.1407 13.0844 9.84281V2.22595C11.7945 2.54075 10.5762 3.09725 9.49031 3.82803V9.35937C9.49031 9.6573 9.25328 9.89902 8.96112 9.89902H8.58629C8.29413 9.89902 8.0571 9.6573 8.0571 9.35937V4.96914C5.84115 7.06026 4.44653 10.0452 4.44653 13.3673H26.9258C26.9313 10.0452 25.5422 7.06026 23.3207 4.96914Z" fill="#FFB342"/>
<path d="M17.2189 8.93385C17.2189 9.18509 17.0416 9.38822 16.8185 9.38822H14.5538C14.3365 9.38822 14.1535 9.18509 14.1535 8.93385V1.3539C14.1535 1.10267 14.3308 0.899536 14.5538 0.899536H16.8185C17.0359 0.899536 17.2189 1.10267 17.2189 1.3539V8.93385Z" fill="#FFB342"/>
</g>
<defs>
<filter id="filter0_d_1_384" x="0" y="0" width="31" height="35" filterUnits="userSpaceOnUse" color-interpolation-filters="sRGB">
<feFlood flood-opacity="0" result="BackgroundImageFix"/>
<feColorMatrix in="SourceAlpha" type="matrix" values="0 0 0 0 0 0 0 0 0 0 0 0 0 0 0 0 0 0 127 0" result="hardAlpha"/>
<feOffset dy="4"/>
<feGaussianBlur stdDeviation="2"/>
<feComposite in2="hardAlpha" operator="out"/>
<feColorMatrix type="matrix" values="0 0 0 0 0 0 0 0 0 0 0 0 0 0 0 0 0 0 0.25 0"/>
<feBlend mode="normal" in2="BackgroundImageFix" result="effect1_dropShadow_1_384"/>
<feBlend mode="normal" in="SourceGraphic" in2="effect1_dropShadow_1_384" result="shape"/>
</filter>
</defs>
</svg>
